<svg xmlns="http://www.w3.org/2000/svg" aria-hidden="true" style="position:absolute;width:0;height:0;overflow:hidden"><defs><symbol id="icon-checkbox-1" viewBox="0 0 40 32"><path fill="#f4f4fd" d="M33.784 1.02A3.668 3.668 0 0 1 40 3.601v.003l.001.095c0 .965-.368 1.844-.972 2.504l.003-.003-19.576 24.616a3.67 3.67 0 0 1-2.702 1.182c-.495 0-.967-.098-1.398-.275l.024.009a3.689 3.689 0 0 1-1.224-.816L1.172 17.864a3.706 3.706 0 0 1-.895-4.121l-.009.025a3.708 3.708 0 0 1 3.43-2.312h.053-.003A3.653 3.653 0 0 1 6.37 12.63l.002.002L16.648 22.96l17.04-21.832a1.29 1.29 0 0 1 .1-.108h-.004z" style="fill:var(--color1, #f4f4fd)"/></symbol><symbol id="icon-circle-up" viewBox="0 0 32 32"><path d="M0 16c0 8.837 7.163 16 16 16s16-7.163 16-16S24.837 0 16 0 0 7.163 0 16zm29 0c0 7.18-5.82 13-13 13S3 23.18 3 16 8.82 3 16 3s13 5.82 13 13z"/><path d="m22.086 20.914 2.829-2.829-8.914-8.914-8.914 8.914 2.828 2.828 6.086-6.086z"/></symbol></defs></svg>